<svg xmlns="http://www.w3.org/2000/svg" width="1040.938" height="734.145" viewBox="0 0 1040.938 734.145">
  <g id="Grupo_203" data-name="Grupo 203" transform="translate(0 0.001)" opacity="0.442" style="isolation: isolate">
    <path id="Trazado_214" data-name="Trazado 214" d="M393.335,292.154a3.31,3.31,0,1,0,3.31,3.31A3.315,3.315,0,0,0,393.335,292.154Zm19.86,0a3.31,3.31,0,1,0,3.31,3.31A3.315,3.315,0,0,0,413.2,292.154Zm19.859,0a3.31,3.31,0,1,0,3.311,3.31A3.314,3.314,0,0,0,433.054,292.154Zm19.86,0a3.31,3.31,0,1,0,3.311,3.31A3.314,3.314,0,0,0,452.914,292.154Zm19.856,0a3.31,3.31,0,1,0,3.31,3.31A3.314,3.314,0,0,0,472.77,292.154Zm19.86,0a3.31,3.31,0,1,0,3.31,3.31A3.314,3.314,0,0,0,492.63,292.154Zm19.86,0a3.31,3.31,0,1,0,3.31,3.31A3.314,3.314,0,0,0,512.49,292.154Zm19.856,0a3.31,3.31,0,1,0,3.31,3.31A3.314,3.314,0,0,0,532.345,292.154Zm19.86,0a3.31,3.31,0,1,0,3.31,3.31A3.314,3.314,0,0,0,552.205,292.154Zm19.86-2.648a3.308,3.308,0,1,0,3.31,3.31A3.313,3.313,0,0,0,572.065,289.506Zm-178.73-17.212a3.31,3.31,0,1,0,3.31,3.31A3.315,3.315,0,0,0,393.335,272.294Zm19.86,0a3.31,3.31,0,1,0,3.31,3.31A3.315,3.315,0,0,0,413.2,272.294Zm19.859,0a3.31,3.31,0,1,0,3.311,3.31A3.314,3.314,0,0,0,433.054,272.294Zm19.86,0a3.31,3.31,0,1,0,3.311,3.31A3.313,3.313,0,0,0,452.914,272.294Zm19.856,0a3.31,3.31,0,1,0,3.31,3.31A3.314,3.314,0,0,0,472.77,272.294Zm19.86,0a3.31,3.31,0,1,0,3.31,3.31A3.313,3.313,0,0,0,492.63,272.294Zm19.86,0a3.31,3.31,0,1,0,3.31,3.31A3.313,3.313,0,0,0,512.49,272.294Zm19.856,0a3.31,3.31,0,1,0,3.31,3.31A3.313,3.313,0,0,0,532.345,272.294Zm19.86,0a3.31,3.31,0,1,0,3.31,3.31A3.314,3.314,0,0,0,552.205,272.294Zm19.86,0a3.31,3.31,0,1,0,3.31,3.31A3.314,3.314,0,0,0,572.065,272.294Zm-178.73-19.859a3.31,3.31,0,1,0,3.31,3.31A3.314,3.314,0,0,0,393.335,252.436Zm19.86,0a3.31,3.31,0,1,0,3.31,3.31A3.314,3.314,0,0,0,413.2,252.436Zm19.859,0a3.31,3.31,0,1,0,3.311,3.31A3.313,3.313,0,0,0,433.054,252.436Zm19.86,0a3.31,3.31,0,1,0,3.311,3.31A3.313,3.313,0,0,0,452.914,252.436Zm19.856,0a3.31,3.31,0,1,0,3.31,3.31A3.313,3.313,0,0,0,472.77,252.436Zm19.86,0a3.31,3.31,0,1,0,3.31,3.31A3.313,3.313,0,0,0,492.63,252.436Zm19.86,0a3.31,3.31,0,1,0,3.31,3.31A3.313,3.313,0,0,0,512.49,252.436Zm19.856,0a3.31,3.31,0,1,0,3.31,3.31A3.313,3.313,0,0,0,532.345,252.436Zm19.86,0a3.31,3.31,0,1,0,3.31,3.31A3.313,3.313,0,0,0,552.205,252.436Zm19.86,0a3.31,3.31,0,1,0,3.31,3.31A3.313,3.313,0,0,0,572.065,252.436Zm-178.73-19.86a3.31,3.31,0,1,0,3.31,3.31A3.314,3.314,0,0,0,393.335,232.576Zm19.86,0a3.31,3.31,0,1,0,3.31,3.31A3.314,3.314,0,0,0,413.2,232.576Zm19.859,0a3.31,3.31,0,1,0,3.311,3.31A3.313,3.313,0,0,0,433.054,232.576Zm19.86,0a3.31,3.31,0,1,0,3.311,3.31A3.313,3.313,0,0,0,452.914,232.576Zm19.856,0a3.31,3.31,0,1,0,3.31,3.31A3.313,3.313,0,0,0,472.77,232.576Zm19.86,0a3.31,3.31,0,1,0,3.31,3.31A3.313,3.313,0,0,0,492.63,232.576Zm19.86,0a3.31,3.31,0,1,0,3.31,3.31A3.313,3.313,0,0,0,512.49,232.576Zm19.856,0a3.31,3.31,0,1,0,3.31,3.31A3.313,3.313,0,0,0,532.345,232.576Zm19.86,0a3.31,3.31,0,1,0,3.31,3.31A3.313,3.313,0,0,0,552.205,232.576Zm19.86,0a3.31,3.31,0,1,0,3.31,3.31A3.313,3.313,0,0,0,572.065,232.576ZM393.335,212.72a3.31,3.31,0,1,0,3.31,3.31A3.314,3.314,0,0,0,393.335,212.72Zm19.86,0a3.31,3.31,0,1,0,3.31,3.31A3.314,3.314,0,0,0,413.2,212.72Zm19.859,0a3.31,3.31,0,1,0,3.311,3.31A3.313,3.313,0,0,0,433.054,212.72Zm19.86,0a3.31,3.31,0,1,0,3.311,3.31A3.313,3.313,0,0,0,452.914,212.72Zm19.856,0a3.31,3.31,0,1,0,3.31,3.31A3.313,3.313,0,0,0,472.77,212.72Zm19.86,0a3.31,3.31,0,1,0,3.31,3.31A3.313,3.313,0,0,0,492.63,212.72Zm19.86,0a3.31,3.31,0,1,0,3.31,3.31A3.313,3.313,0,0,0,512.49,212.72Zm19.856,0a3.31,3.31,0,1,0,3.31,3.31A3.313,3.313,0,0,0,532.345,212.72Zm19.86,0a3.31,3.31,0,1,0,3.31,3.31A3.313,3.313,0,0,0,552.205,212.72Zm19.86,0a3.31,3.31,0,1,0,3.31,3.31A3.313,3.313,0,0,0,572.065,212.72ZM100.755,211.4A223.382,223.382,0,0,0,56.064,215.9a220.563,220.563,0,0,0-79.3,33.366,222.988,222.988,0,0,0-59.9,59.9,220.531,220.531,0,0,0-33.367,79.293,223.915,223.915,0,0,0,0,89.382,220.526,220.526,0,0,0,33.367,79.294,222.377,222.377,0,0,0,97.566,80.342A220.583,220.583,0,0,0,56.064,650.4a223.851,223.851,0,0,0,89.382,0,220.56,220.56,0,0,0,79.3-33.366,222.995,222.995,0,0,0,59.9-59.9,220.541,220.541,0,0,0,33.366-79.294,223.915,223.915,0,0,0,0-89.382,220.546,220.546,0,0,0-33.366-79.293,223.016,223.016,0,0,0-59.9-59.9A220.9,220.9,0,0,0,100.755,211.4Zm292.58-18.536a3.31,3.31,0,1,0,3.31,3.31A3.314,3.314,0,0,0,393.335,192.86Zm19.86,0a3.31,3.31,0,1,0,3.31,3.31A3.314,3.314,0,0,0,413.2,192.86Zm19.859,0a3.31,3.31,0,1,0,3.311,3.31A3.313,3.313,0,0,0,433.054,192.86Zm19.86,0a3.31,3.31,0,1,0,3.311,3.31A3.313,3.313,0,0,0,452.914,192.86Zm19.856,0a3.31,3.31,0,1,0,3.31,3.31A3.313,3.313,0,0,0,472.77,192.86Zm19.86,0a3.31,3.31,0,1,0,3.31,3.31A3.313,3.313,0,0,0,492.63,192.86Zm19.86,0a3.31,3.31,0,1,0,3.31,3.31A3.313,3.313,0,0,0,512.49,192.86Zm19.856,0a3.31,3.31,0,1,0,3.31,3.31A3.313,3.313,0,0,0,532.345,192.86Zm19.86,0a3.31,3.31,0,1,0,3.31,3.31A3.313,3.313,0,0,0,552.205,192.86Zm19.86,0a3.31,3.31,0,1,0,3.31,3.31A3.313,3.313,0,0,0,572.065,192.86ZM393.335,173a3.31,3.31,0,1,0,3.31,3.31A3.314,3.314,0,0,0,393.335,173Zm19.86,0a3.31,3.31,0,1,0,3.31,3.31A3.314,3.314,0,0,0,413.2,173Zm19.859,0a3.31,3.31,0,1,0,3.311,3.31A3.313,3.313,0,0,0,433.054,173Zm19.86,0a3.31,3.31,0,1,0,3.311,3.31A3.313,3.313,0,0,0,452.914,173Zm19.856,0a3.31,3.31,0,1,0,3.31,3.31A3.313,3.313,0,0,0,472.77,173Zm19.86,0a3.31,3.31,0,1,0,3.31,3.31A3.313,3.313,0,0,0,492.63,173Zm19.86,0a3.31,3.31,0,1,0,3.31,3.31A3.313,3.313,0,0,0,512.49,173Zm19.856,0a3.31,3.31,0,1,0,3.31,3.31A3.313,3.313,0,0,0,532.345,173Zm19.86,0a3.31,3.31,0,1,0,3.31,3.31A3.313,3.313,0,0,0,552.205,173Zm19.86,0a3.31,3.31,0,1,0,3.31,3.31A3.313,3.313,0,0,0,572.065,173Z" transform="translate(465.563 79.241)" fill="#57d5eb" fill-rule="evenodd" opacity="0.5"/>
    <path id="Trazado_215" data-name="Trazado 215" d="M72.041,20.52a20.52,20.52,0,1,0-20.521,20.52A20.521,20.521,0,0,0,72.041,20.52Z" transform="translate(863.958 -0.001)" fill="#57d5eb" fill-rule="evenodd"/>
    <path id="Trazado_216" data-name="Trazado 216" d="M765.856,444.928a56.928,56.928,0,1,0-56.928,56.928A56.928,56.928,0,0,0,765.856,444.928Z" transform="translate(-652 125.673)" fill="#57d5eb" fill-rule="evenodd"/>
  </g>
</svg>
