<svg xmlns="http://www.w3.org/2000/svg" width="58.334" height="58.371" viewBox="0 0 58.334 58.371">
  <g id="list_check" transform="translate(0.002)">
    <circle id="Elipse_14" data-name="Elipse 14" cx="29.165" cy="29.165" r="29.165" transform="translate(0.002)" fill="#fff"/>
    <path id="Trazado_7" data-name="Trazado 7" d="M33.583,44.582a7.291,7.291,0,0,1-1.125,1,5.25,5.25,0,0,1-6.729.1L10.168,32.958a5.021,5.021,0,0,1-.583-7.187,5.312,5.312,0,0,1,7.354-.792L28.6,34.52,49.874,9.813c.187-.208.4-.375.583-.562a29.165,29.165,0,1,0,7.875,19.895A28.811,28.811,0,0,0,56.249,18.23Z" transform="translate(0 0.019)" fill="#57d5eb" fill-rule="evenodd"/>
  </g>
</svg>
